<?xml version="1.0" encoding="UTF-8" standalone="no"?> <svg id="Layer_1" data-name="Layer 1" xmlns="http://www.w3.org/2000/svg" viewBox="0 0 64 64"><path d="M61.29,54.044l1.424-1.4c-.128-.131-3.108-3.278-2.371-9.328.887-7.286-.623-10.623-7.033-15.532l-.217-.164L53,27.547V24a1,1,0,0,0-.629-.929,27.946,27.946,0,0,0-16.595-1.3l.448,1.95A25.927,25.927,0,0,1,51,24.687V36.264l-.484-.618a2.665,2.665,0,0,0-4.5,2.792L51,48.873v4.932a30.787,30.787,0,0,0-18,2.584V32H31V56.408a30.842,30.842,0,0,0-18-2.6V48.872l4.987-10.434a2.665,2.665,0,0,0-4.5-2.792L13,36.265V24.687a25.927,25.927,0,0,1,14.776-.961l.448-1.95a27.946,27.946,0,0,0-16.595,1.3A1,1,0,0,0,11,24v3.547l-.093.069-.225.17c-6.4,4.9-7.912,8.24-7.025,15.526.737,6.05-2.243,9.2-2.371,9.328l.714.7.71.7c.155-.156,3.791-3.915,2.933-10.975-.707-5.8-.013-8.655,5.357-12.986v8.735L8.623,41.853,10.2,43.085l4.863-6.207a.664.664,0,0,1,1.122.7L4.395,62.238,6.2,63.1,11,53.057V58a1,1,0,0,0,1,1H52a1,1,0,0,0,1-1V53.058L57.8,63.1l1.8-.864L47.818,37.576a.665.665,0,0,1,1.123-.7L53.8,43.085l1.574-1.232L53,38.818V30.083c5.371,4.334,6.064,7.187,5.357,12.986C57.5,50.129,61.135,53.888,61.29,54.044ZM13,57V55.854A28.806,28.806,0,0,1,27.142,57Zm38,0H36.856A28.788,28.788,0,0,1,51,55.854Z"/><path d="M33,21.46l6.651-5.7A1,1,0,0,0,40,15V12.816a3,3,0,1,0-2,0V14.54l-5,4.286V6.816a3,3,0,1,0-2,0v8.461L26,12.42v-1.6a3,3,0,1,0-2,0V13a1,1,0,0,0,.5.868L31,17.58V26h2ZM39,9a1,1,0,1,1-1,1A1,1,0,0,1,39,9ZM25,9a1,1,0,1,1,1-1A1,1,0,0,1,25,9Zm7-4a1,1,0,1,1,1-1A1,1,0,0,1,32,5Z"/><rect x="31" y="28" width="2" height="2"/></svg>