<?xml version="1.0" encoding="UTF-8" standalone="no"?> <svg width="64" height="64" viewBox="0 0 64 64" fill="none" xmlns="http://www.w3.org/2000/svg">
<path d="M36 50V53C36 53.2652 36.1054 53.5196 36.2929 53.7071C36.4804 53.8946 36.7348 54 37 54H50.59C50.097 53.4493 49.8262 52.7352 49.8298 51.9962C49.8335 51.2571 50.1116 50.5457 50.61 50H36ZM45 53H43C42.7348 53 42.4804 52.8946 42.2929 52.7071C42.1054 52.5196 42 52.2652 42 52C42 51.7348 42.1054 51.4804 42.2929 51.2929C42.4804 51.1054 42.7348 51 43 51H45C45.2652 51 45.5196 51.1054 45.7071 51.2929C45.8946 51.4804 46 51.7348 46 52C46 52.2652 45.8946 52.5196 45.7071 52.7071C45.5196 52.8946 45.2652 53 45 53Z" fill="black"/>
<path d="M34 52H19C18.7348 52 18.4804 52.1054 18.2929 52.2929C18.1054 52.4804 18 52.7348 18 53V54H34.18C34.0636 53.6793 34.0027 53.3411 34 53V52Z" fill="black"/>
<path d="M34 46H27V50H34V46Z" fill="black"/>
<path d="M55.41 38H56V8H8V38H34V27C34.0024 26.2051 34.3192 25.4434 34.8813 24.8813C35.4434 24.3192 36.2051 24.0024 37 24H51C51.7949 24.0024 52.5566 24.3192 53.1187 24.8813C53.6808 25.4434 53.9976 26.2051 54 27V36.59L55.41 38ZM27.71 32.293C27.8055 32.3852 27.8817 32.4956 27.9341 32.6176C27.9865 32.7396 28.0141 32.8708 28.0153 33.0036C28.0164 33.1364 27.9911 33.2681 27.9408 33.391C27.8905 33.5138 27.8163 33.6255 27.7224 33.7194C27.6285 33.8133 27.5168 33.8875 27.394 33.9378C27.2711 33.9881 27.1394 34.0134 27.0066 34.0122C26.8738 34.0111 26.7426 33.9835 26.6206 33.9311C26.4986 33.8787 26.3882 33.8025 26.296 33.707L25 32.414L23.707 33.707C23.5184 33.8892 23.2658 33.99 23.0036 33.9877C22.7414 33.9854 22.4906 33.8802 22.3052 33.6948C22.1198 33.5094 22.0146 33.2586 22.0123 32.9964C22.01 32.7342 22.1108 32.4816 22.293 32.293L23.586 31L22.293 29.707C22.1108 29.5184 22.01 29.2658 22.0123 29.0036C22.0146 28.7414 22.1198 28.4906 22.3052 28.3052C22.4906 28.1198 22.7414 28.0146 23.0036 28.0123C23.2658 28.01 23.5184 28.1108 23.707 28.293L25 29.586L26.293 28.293C26.4816 28.1108 26.7342 28.01 26.9964 28.0123C27.2586 28.0146 27.5094 28.1198 27.6948 28.3052C27.8802 28.4906 27.9854 28.7414 27.9877 29.0036C27.99 29.2658 27.8892 29.5184 27.707 29.707L26.414 31L27.71 32.293ZM28 26H21.781L19.97 33.243C19.9241 33.4262 19.8272 33.5927 19.6905 33.7231C19.5539 33.8535 19.3831 33.9426 19.198 33.98C19.1329 33.9935 19.0665 34.0002 19 34C18.8448 34 18.6916 33.9639 18.5528 33.8944C18.4139 33.825 18.2931 33.7242 18.2 33.6L15.892 30.522L15.707 30.707C15.5184 30.8892 15.2658 30.99 15.0036 30.9877C14.7414 30.9854 14.4906 30.8802 14.3052 30.6948C14.1198 30.5094 14.0146 30.2586 14.0123 29.9964C14.01 29.7342 14.1108 29.4816 14.293 29.293L15.293 28.293C15.3938 28.1908 15.5155 28.1117 15.6498 28.0611C15.7841 28.0105 15.9278 27.9896 16.071 28C16.2141 28.0105 16.3533 28.0516 16.479 28.1206C16.6048 28.1897 16.7143 28.2849 16.8 28.4L18.539 30.719L20.03 24.757C20.0842 24.5408 20.209 24.3488 20.3848 24.2117C20.5605 24.0745 20.7771 24 21 24H28C28.2652 24 28.5196 24.1054 28.7071 24.2929C28.8946 24.4804 29 24.7348 29 25C29 25.2652 28.8946 25.5196 28.7071 25.7071C28.5196 25.8946 28.2652 26 28 26ZM22.293 15.707C22.1108 15.5184 22.01 15.2658 22.0123 15.0036C22.0146 14.7414 22.1198 14.4906 22.3052 14.3052C22.4906 14.1198 22.7414 14.0146 23.0036 14.0123C23.2658 14.01 23.5184 14.1108 23.707 14.293L25 15.586L26.293 14.293C26.4816 14.1108 26.7342 14.01 26.9964 14.0123C27.2586 14.0146 27.5094 14.1198 27.6948 14.3052C27.8802 14.4906 27.9854 14.7414 27.9877 15.0036C27.99 15.2658 27.8892 15.5184 27.707 15.707L26.414 17L27.707 18.293C27.8025 18.3852 27.8787 18.4956 27.9311 18.6176C27.9835 18.7396 28.0111 18.8708 28.0123 19.0036C28.0134 19.1364 27.9881 19.2681 27.9378 19.391C27.8875 19.5138 27.8133 19.6255 27.7194 19.7194C27.6255 19.8133 27.5138 19.8875 27.391 19.9378C27.2681 19.9881 27.1364 20.0134 27.0036 20.0123C26.8708 20.0111 26.7396 19.9835 26.6176 19.9311C26.4956 19.8787 26.3852 19.8025 26.293 19.707L25 18.414L23.707 19.707C23.5184 19.8892 23.2658 19.99 23.0036 19.9877C22.7414 19.9854 22.4906 19.8802 22.3052 19.6948C22.1198 19.5094 22.0146 19.2586 22.0123 18.9964C22.01 18.7342 22.1108 18.4816 22.293 18.293L23.586 17L22.293 15.707ZM28 12H21.781L19.97 19.243C19.9241 19.4262 19.8272 19.5927 19.6905 19.7231C19.5539 19.8535 19.3831 19.9426 19.198 19.98C19.1329 19.9935 19.0665 20.0002 19 20C18.8448 20 18.6916 19.9639 18.5528 19.8944C18.4139 19.825 18.2931 19.7242 18.2 19.6L15.892 16.522L15.707 16.707C15.5184 16.8892 15.2658 16.99 15.0036 16.9877C14.7414 16.9854 14.4906 16.8802 14.3052 16.6948C14.1198 16.5094 14.0146 16.2586 14.0123 15.9964C14.01 15.7342 14.1108 15.4816 14.293 15.293L15.293 14.293C15.3943 14.1917 15.5162 14.1134 15.6504 14.0633C15.7846 14.0132 15.928 13.9925 16.0709 14.0026C16.2138 14.0128 16.3529 14.0535 16.4787 14.1221C16.6044 14.1906 16.714 14.2854 16.8 14.4L18.539 16.719L20.03 10.757C20.0842 10.5408 20.209 10.3488 20.3848 10.2117C20.5605 10.0745 20.7771 10 21 10H28C28.2652 10 28.5196 10.1054 28.7071 10.2929C28.8946 10.4804 29 10.7348 29 11C29 11.2652 28.8946 11.5196 28.7071 11.7071C28.5196 11.8946 28.2652 12 28 12ZM33 19H31C30.7348 19 30.4804 18.8946 30.2929 18.7071C30.1054 18.5196 30 18.2652 30 18C30 17.7348 30.1054 17.4804 30.2929 17.2929C30.4804 17.1054 30.7348 17 31 17H33C33.2652 17 33.5196 17.1054 33.7071 17.2929C33.8946 17.4804 34 17.7348 34 18C34 18.2652 33.8946 18.5196 33.7071 18.7071C33.5196 18.8946 33.2652 19 33 19ZM33 16H31C30.7348 16 30.4804 15.8946 30.2929 15.7071C30.1054 15.5196 30 15.2652 30 15C30 14.7348 30.1054 14.4804 30.2929 14.2929C30.4804 14.1054 30.7348 14 31 14H33C33.2652 14 33.5196 14.1054 33.7071 14.2929C33.8946 14.4804 34 14.7348 34 15C34 15.2652 33.8946 15.5196 33.7071 15.7071C33.5196 15.8946 33.2652 16 33 16ZM41.707 18.293C41.8025 18.3852 41.8787 18.4956 41.9311 18.6176C41.9835 18.7396 42.0111 18.8708 42.0122 19.0036C42.0134 19.1364 41.9881 19.2681 41.9378 19.391C41.8875 19.5138 41.8133 19.6255 41.7194 19.7194C41.6255 19.8133 41.5138 19.8875 41.391 19.9378C41.2681 19.9881 41.1364 20.0134 41.0036 20.0123C40.8708 20.0111 40.7396 19.9835 40.6176 19.9311C40.4956 19.8787 40.3852 19.8025 40.293 19.707L39 18.414L37.707 19.707C37.5184 19.8892 37.2658 19.99 37.0036 19.9877C36.7414 19.9854 36.4906 19.8802 36.3052 19.6948C36.1198 19.5094 36.0146 19.2586 36.0123 18.9964C36.01 18.7342 36.1108 18.4816 36.293 18.293L37.586 17L36.293 15.707C36.1108 15.5184 36.01 15.2658 36.0123 15.0036C36.0146 14.7414 36.1198 14.4906 36.3052 14.3052C36.4906 14.1198 36.7414 14.0146 37.0036 14.0123C37.2658 14.01 37.5184 14.1108 37.707 14.293L39 15.586L40.293 14.293C40.4816 14.1108 40.7342 14.01 40.9964 14.0123C41.2586 14.0146 41.5094 14.1198 41.6948 14.3052C41.8802 14.4906 41.9854 14.7414 41.9877 15.0036C41.99 15.2658 41.8892 15.5184 41.707 15.707L40.414 17L41.707 18.293Z" fill="black"/>
<path d="M49.76 39.51C50.0225 39.5092 50.2825 39.561 50.5247 39.6624C50.7669 39.7637 50.9863 39.9125 51.17 40.1L52 40.93V32H36V48H50.59L48.34 45.76C47.5908 45.0087 47.1702 43.991 47.1702 42.93C47.1702 41.869 47.5908 40.8513 48.34 40.1C48.5257 39.9123 48.7469 39.7635 48.9907 39.6622C49.2345 39.5609 49.496 39.5092 49.76 39.51V39.51ZM46.707 41.293C46.8025 41.3852 46.8787 41.4956 46.9311 41.6176C46.9835 41.7396 47.0111 41.8708 47.0122 42.0036C47.0134 42.1364 46.9881 42.2681 46.9378 42.391C46.8875 42.5138 46.8133 42.6255 46.7194 42.7194C46.6255 42.8133 46.5138 42.8875 46.391 42.9378C46.2681 42.9881 46.1364 43.0134 46.0036 43.0122C45.8708 43.0111 45.7396 42.9835 45.6176 42.9311C45.4956 42.8787 45.3852 42.8025 45.293 42.707L44 41.414L42.707 42.707C42.5184 42.8892 42.2658 42.99 42.0036 42.9877C41.7414 42.9854 41.4906 42.8802 41.3052 42.6948C41.1198 42.5094 41.0146 42.2586 41.0123 41.9964C41.01 41.7342 41.1108 41.4816 41.293 41.293L42.586 40L41.293 38.707C41.1108 38.5184 41.01 38.2658 41.0123 38.0036C41.0146 37.7414 41.1198 37.4906 41.3052 37.3052C41.4906 37.1198 41.7414 37.0146 42.0036 37.0123C42.2658 37.01 42.5184 37.1108 42.707 37.293L44 38.586L45.293 37.293C45.4816 37.1108 45.7342 37.01 45.9964 37.0123C46.2586 37.0146 46.5094 37.1198 46.6948 37.3052C46.8802 37.4906 46.9854 37.7414 46.9877 38.0036C46.99 38.2658 46.8892 38.5184 46.707 38.707L45.414 40L46.707 41.293Z" fill="black"/>
<path d="M4 41C4.00237 41.7949 4.31921 42.5566 4.8813 43.1187C5.4434 43.6808 6.20508 43.9976 7 44H34V40H4V41Z" fill="black"/>
<path d="M58.54 43.95L54 39.41V42.93L55.69 44.62C55.7947 44.7097 55.8797 44.82 55.9397 44.9441C55.9998 45.0681 56.0335 45.2033 56.0388 45.341C56.0441 45.4787 56.0209 45.616 55.9707 45.7444C55.9204 45.8727 55.8441 45.9892 55.7467 46.0867C55.6492 46.1841 55.5327 46.2604 55.4043 46.3107C55.276 46.3609 55.1387 46.3842 55.001 46.3788C54.8632 46.3735 54.7281 46.3398 54.6041 46.2798C54.48 46.2197 54.3697 46.1347 54.28 46.03L49.76 41.51C49.5731 41.6963 49.4248 41.9176 49.3236 42.1613C49.2223 42.4049 49.1701 42.6662 49.17 42.93C49.1692 43.1925 49.2211 43.4526 49.3224 43.6947C49.4237 43.9369 49.5725 44.1563 49.76 44.34L52.29 46.88C52.5689 47.1582 52.7902 47.4886 52.9412 47.8524C53.0922 48.2162 53.1699 48.6062 53.1699 49C53.1699 49.3939 53.0922 49.7839 52.9412 50.1477C52.7902 50.5115 52.5689 50.8419 52.29 51.12L52.12 51.29C51.9341 51.4796 51.83 51.7345 51.83 52C51.83 52.2655 51.9341 52.5205 52.12 52.71L53.71 54.29C53.8488 54.4307 53.9428 54.6092 53.9802 54.8032C54.0175 54.9972 53.9966 55.1979 53.92 55.38C53.8465 55.5637 53.7194 55.721 53.5554 55.8315C53.3913 55.9421 53.1978 56.0008 53 56H47.9C47.96 56.08 48.02 56.17 48.08 56.24L49.34 57.83C49.7682 58.3591 50.0013 59.0194 50 59.7V61H60V47.49C60.0025 46.8328 59.8748 46.1816 59.6242 45.574C59.3736 44.9664 59.0051 44.4144 58.54 43.95V43.95Z" fill="black"/>
<path d="M60 41V40H57.41L59.7 42.29C59.8955 41.8879 59.998 41.4471 60 41Z" fill="black"/>
<path d="M58 7V38H60V7C59.9976 6.20508 59.6808 5.4434 59.1187 4.8813C58.5566 4.31921 57.7949 4.00237 57 4H7C6.20508 4.00237 5.4434 4.31921 4.8813 4.8813C4.31921 5.4434 4.00237 6.20508 4 7V38H6V7C6 6.73478 6.10536 6.48043 6.29289 6.29289C6.48043 6.10536 6.73478 6 7 6H57C57.2652 6 57.5196 6.10536 57.7071 6.29289C57.8946 6.48043 58 6.73478 58 7Z" fill="black"/>
<path d="M52 27C52 26.7348 51.8946 26.4804 51.7071 26.2929C51.5196 26.1054 51.2652 26 51 26H37C36.7348 26 36.4804 26.1054 36.2929 26.2929C36.1054 26.4804 36 26.7348 36 27V30H52V27ZM45 29H43C42.7348 29 42.4804 28.8946 42.2929 28.7071C42.1054 28.5196 42 28.2652 42 28C42 27.7348 42.1054 27.4804 42.2929 27.2929C42.4804 27.1054 42.7348 27 43 27H45C45.2652 27 45.5196 27.1054 45.7071 27.2929C45.8946 27.4804 46 27.7348 46 28C46 28.2652 45.8946 28.5196 45.7071 28.7071C45.5196 28.8946 45.2652 29 45 29Z" fill="black"/>
</svg>
