<?xml version="1.0" encoding="iso-8859-1"?>
<!-- Generator: Adobe Illustrator 16.0.0, SVG Export Plug-In . SVG Version: 6.00 Build 0)  -->
<!DOCTYPE svg PUBLIC "-//W3C//DTD SVG 1.1//EN" "http://www.w3.org/Graphics/SVG/1.1/DTD/svg11.dtd">
<svg version="1.1" xmlns="http://www.w3.org/2000/svg" xmlns:xlink="http://www.w3.org/1999/xlink" x="0px" y="0px" width="512px"
	 height="512px" viewBox="0 0 512 512" style="enable-background:new 0 0 512 512;" xml:space="preserve">
<g id="_x37_40_x2C__Abstract_x2C__aggregation_x2C__cube_x2C__dimensional_x2C__matrix">
	<g>
		<g>
			<g>
				<g>
					<path style="fill:#010101;" d="M111.592,233.766H39.38c-1.657,0-3-1.343-3-3V158.54c0-1.657,1.343-3,3-3h72.212
						c1.657,0,3,1.343,3,3v72.226C114.592,232.422,113.249,233.766,111.592,233.766z M42.38,227.766h66.212V161.54H42.38V227.766z"
						/>
				</g>
				<g>
					<path style="fill:#010101;" d="M215.811,233.766h-72.225c-1.657,0-3-1.343-3-3V158.54c0-1.657,1.343-3,3-3h72.225
						c1.657,0,3,1.343,3,3v72.226C218.811,232.422,217.467,233.766,215.811,233.766z M146.586,227.766h66.225V161.54h-66.225
						V227.766z"/>
				</g>
				<g>
					<path style="fill:#010101;" d="M320.029,233.766H247.82c-1.657,0-3-1.343-3-3V158.54c0-1.657,1.343-3,3-3h72.209
						c1.657,0,3,1.343,3,3v72.226C323.029,232.422,321.687,233.766,320.029,233.766z M250.82,227.766h66.209V161.54H250.82V227.766z
						"/>
				</g>
				<g>
					<path style="fill:#010101;" d="M111.592,335.5H39.38c-1.657,0-3-1.343-3-3v-72.197c0-1.657,1.343-3,3-3h72.212
						c1.657,0,3,1.343,3,3V332.5C114.592,334.157,113.249,335.5,111.592,335.5z M42.38,329.5h66.212v-66.197H42.38V329.5z"/>
				</g>
				<g>
					<path style="fill:#010101;" d="M215.811,335.5h-72.225c-1.657,0-3-1.343-3-3v-72.197c0-1.657,1.343-3,3-3h72.225
						c1.657,0,3,1.343,3,3V332.5C218.811,334.157,217.467,335.5,215.811,335.5z M146.586,329.5h66.225v-66.197h-66.225V329.5z"/>
				</g>
				<g>
					<path style="fill:#010101;" d="M320.029,335.5H247.82c-1.657,0-3-1.343-3-3v-72.197c0-1.657,1.343-3,3-3h72.209
						c1.657,0,3,1.343,3,3V332.5C323.029,334.157,321.687,335.5,320.029,335.5z M250.82,329.5h66.209v-66.197H250.82V329.5z"/>
				</g>
				<g>
					<path style="fill:#010101;" d="M111.592,437.292H39.38c-1.657,0-3-1.343-3-3v-72.226c0-1.657,1.343-3,3-3h72.212
						c1.657,0,3,1.343,3,3v72.226C114.592,435.949,113.249,437.292,111.592,437.292z M42.38,431.292h66.212v-66.226H42.38V431.292z"
						/>
				</g>
				<g>
					<path style="fill:#010101;" d="M215.811,437.292h-72.225c-1.657,0-3-1.343-3-3v-72.226c0-1.657,1.343-3,3-3h72.225
						c1.657,0,3,1.343,3,3v72.226C218.811,435.949,217.467,437.292,215.811,437.292z M146.586,431.292h66.225v-66.226h-66.225
						V431.292z"/>
				</g>
				<g>
					<path style="fill:#010101;" d="M320.029,437.292H247.82c-1.657,0-3-1.343-3-3v-72.226c0-1.657,1.343-3,3-3h72.209
						c1.657,0,3,1.343,3,3v72.226C323.029,435.949,321.687,437.292,320.029,437.292z M250.82,431.292h66.209v-66.226H250.82V431.292
						z"/>
				</g>
				<g>
					<path style="fill:#010101;" d="M320.029,437.292c-0.547,0-1.092-0.149-1.572-0.445c-0.888-0.546-1.428-1.513-1.428-2.555
						V158.54c0-1.132,0.638-2.168,1.648-2.678l166.207-83.863c0.93-0.471,2.037-0.422,2.924,0.124
						c0.888,0.546,1.428,1.513,1.428,2.555v275.749c0,1.133-0.638,2.168-1.648,2.679l-166.207,83.866
						C320.955,437.186,320.491,437.292,320.029,437.292z M323.029,160.387v269.031l160.207-80.839V79.551L323.029,160.387z"/>
				</g>
				<g>
					<path style="fill:#010101;" d="M320.029,161.54H39.38c-1.41,0-2.629-0.981-2.931-2.359c-0.301-1.377,0.397-2.778,1.678-3.367
						l193.368-88.86c0.412-0.189,0.853-0.286,1.312-0.273l253.489,4.997c1.378,0.027,2.56,0.99,2.865,2.333
						c0.307,1.344-0.343,2.724-1.573,3.344l-166.207,83.863C320.962,161.43,320.499,161.54,320.029,161.54z M53.093,155.54h266.223
						l154.788-78.102l-240.728-4.745L53.093,155.54z"/>
				</g>
				<g>
					<path style="fill:#010101;" d="M279.416,453.872H47.943c-1.657,0-3-1.343-3-3s1.343-3,3-3h231.473c1.657,0,3,1.343,3,3
						S281.073,453.872,279.416,453.872z"/>
				</g>
				<g>
					<path style="fill:#010101;" d="M343.653,467.954H183.487c-1.657,0-3-1.343-3-3s1.343-3,3-3h160.166c1.657,0,3,1.343,3,3
						S345.311,467.954,343.653,467.954z"/>
				</g>
				<g>
					<path style="fill:#010101;" d="M380.08,467.954h-20.025c-1.657,0-3-1.343-3-3s1.343-3,3-3h20.025c1.657,0,3,1.343,3,3
						S381.737,467.954,380.08,467.954z"/>
				</g>
				<g>
					<path style="fill:#010101;" d="M114.72,467.516H38.83c-1.657,0-3-1.343-3-3s1.343-3,3-3h75.89c1.657,0,3,1.343,3,3
						S116.376,467.516,114.72,467.516z"/>
				</g>
				<g>
					<path style="fill:#010101;" d="M372.231,380.412c-1.135,0-2.221-0.647-2.727-1.746c-0.693-1.505-0.035-3.286,1.47-3.979
						l81.97-37.765V187.418c0-1.657,1.343-3,3-3s3,1.343,3,3v151.425c0,1.171-0.682,2.234-1.745,2.725l-83.715,38.568
						C373.078,380.323,372.651,380.412,372.231,380.412z"/>
				</g>
				<g>
					<path style="fill:#010101;" d="M26.246,139.388c-1.136,0-2.223-0.648-2.728-1.749c-0.692-1.505-0.032-3.287,1.474-3.979
						l4.543-2.088c1.506-0.693,3.287-0.032,3.979,1.474s0.032,3.287-1.473,3.979l-4.544,2.088
						C27.091,139.299,26.665,139.388,26.246,139.388z M47.146,129.784c-1.136,0-2.223-0.648-2.728-1.748
						c-0.692-1.505-0.032-3.287,1.474-3.979l4.543-2.087c1.506-0.691,3.287-0.032,3.979,1.474c0.692,1.505,0.032,3.287-1.474,3.979
						l-4.543,2.087C47.99,129.696,47.564,129.784,47.146,129.784z M68.044,120.181c-1.136,0-2.223-0.648-2.728-1.749
						c-0.692-1.505-0.032-3.287,1.474-3.979l4.543-2.088c1.507-0.691,3.287-0.032,3.979,1.474c0.692,1.505,0.032,3.287-1.474,3.979
						l-4.543,2.088C68.889,120.093,68.463,120.181,68.044,120.181z M88.944,110.578c-1.136,0-2.223-0.648-2.728-1.749
						c-0.692-1.505-0.032-3.287,1.474-3.979l4.543-2.087c1.508-0.691,3.287-0.032,3.979,1.474c0.692,1.505,0.032,3.287-1.474,3.979
						l-4.543,2.087C89.789,110.489,89.363,110.578,88.944,110.578z M109.843,100.974c-1.136,0-2.223-0.648-2.728-1.748
						c-0.692-1.506-0.032-3.287,1.473-3.979l4.543-2.088c1.508-0.692,3.287-0.032,3.979,1.474c0.692,1.505,0.032,3.287-1.474,3.979
						l-4.543,2.088C110.688,100.886,110.262,100.974,109.843,100.974z M130.742,91.371c-1.136,0-2.223-0.648-2.728-1.748
						c-0.692-1.505-0.032-3.287,1.474-3.979l4.543-2.087c1.506-0.692,3.287-0.031,3.979,1.474c0.692,1.505,0.032,3.287-1.474,3.979
						l-4.543,2.087C131.587,91.283,131.161,91.371,130.742,91.371z M151.641,81.768c-1.136,0-2.223-0.648-2.728-1.748
						c-0.692-1.505-0.032-3.287,1.473-3.979l4.544-2.088c1.506-0.692,3.286-0.032,3.979,1.473c0.692,1.506,0.032,3.287-1.474,3.979
						l-4.543,2.088C152.486,81.68,152.06,81.768,151.641,81.768z M172.541,72.164c-1.136,0-2.223-0.648-2.728-1.748
						c-0.692-1.505-0.032-3.287,1.474-3.979l4.543-2.087c1.507-0.691,3.287-0.032,3.979,1.474c0.692,1.505,0.032,3.287-1.474,3.979
						l-4.543,2.087C173.385,72.076,172.959,72.164,172.541,72.164z M193.44,62.561c-1.136,0-2.223-0.648-2.728-1.748
						c-0.692-1.506-0.032-3.287,1.473-3.979l4.543-2.088c1.505-0.691,3.287-0.032,3.979,1.473s0.032,3.287-1.473,3.979l-4.543,2.088
						C194.285,62.473,193.859,62.561,193.44,62.561z M471.757,55.495c-0.02,0-0.04,0-0.061,0l-4.999-0.099
						c-1.656-0.033-2.973-1.402-2.939-3.059c0.032-1.636,1.369-2.941,2.998-2.941c0.02,0,0.04,0,0.061,0l4.999,0.099
						c1.656,0.033,2.973,1.402,2.939,3.059C474.723,54.19,473.387,55.495,471.757,55.495z M448.762,55.042c-0.02,0-0.04,0-0.061,0
						l-4.999-0.099c-1.656-0.033-2.973-1.402-2.939-3.059c0.032-1.636,1.369-2.941,2.998-2.941c0.02,0,0.04,0,0.061,0l4.999,0.099
						c1.656,0.033,2.973,1.402,2.939,3.059C451.728,53.737,450.392,55.042,448.762,55.042z M425.767,54.588c-0.02,0-0.04,0-0.061,0
						l-4.999-0.099c-1.656-0.033-2.973-1.402-2.939-3.059c0.032-1.636,1.368-2.941,2.998-2.941c0.02,0,0.04,0,0.061,0l4.999,0.099
						c1.656,0.033,2.973,1.402,2.939,3.059C428.732,53.284,427.396,54.588,425.767,54.588z M402.771,54.135c-0.02,0-0.04,0-0.061,0
						l-4.999-0.099c-1.656-0.033-2.973-1.402-2.939-3.059c0.032-1.636,1.368-2.941,2.998-2.941c0.02,0,0.04,0,0.061,0l4.999,0.099
						c1.656,0.033,2.973,1.402,2.939,3.059C405.736,52.831,404.399,54.135,402.771,54.135z M379.775,53.682c-0.02,0-0.04,0-0.061,0
						l-4.999-0.099c-1.656-0.033-2.973-1.402-2.939-3.059c0.032-1.636,1.368-2.941,2.998-2.941c0.02,0,0.04,0,0.061,0l4.999,0.099
						c1.656,0.033,2.973,1.402,2.939,3.059C382.741,52.377,381.404,53.682,379.775,53.682z M356.779,53.229c-0.021,0-0.04,0-0.061,0
						l-4.999-0.099c-1.656-0.033-2.973-1.402-2.939-3.059c0.032-1.636,1.368-2.941,2.998-2.941c0.02,0,0.04,0,0.061,0l4.999,0.099
						c1.656,0.033,2.973,1.402,2.939,3.059C359.745,51.924,358.408,53.229,356.779,53.229z M214.339,52.958
						c-1.136,0-2.223-0.648-2.728-1.748c-0.692-1.505-0.032-3.287,1.474-3.979l4.543-2.087c1.507-0.692,3.288-0.031,3.979,1.474
						c0.692,1.505,0.032,3.287-1.474,3.979l-4.543,2.087C215.184,52.87,214.758,52.958,214.339,52.958z M333.784,52.776
						c-0.02,0-0.04,0-0.061,0l-4.999-0.099c-1.656-0.033-2.973-1.402-2.939-3.059c0.032-1.636,1.368-2.941,2.998-2.941
						c0.02,0,0.04,0,0.061,0l4.999,0.099c1.656,0.033,2.973,1.402,2.939,3.059C336.75,51.471,335.414,52.776,333.784,52.776z
						 M310.788,52.323c-0.02,0-0.04,0-0.061,0l-4.999-0.099c-1.656-0.033-2.973-1.402-2.939-3.059
						c0.032-1.656,1.427-2.965,3.059-2.94l4.999,0.099c1.656,0.033,2.973,1.402,2.939,3.059
						C313.754,51.018,312.418,52.323,310.788,52.323z M287.793,51.87c-0.02,0-0.04,0-0.061,0l-4.999-0.099
						c-1.656-0.033-2.973-1.402-2.939-3.059c0.033-1.657,1.408-2.983,3.059-2.94l4.999,0.099c1.656,0.033,2.973,1.402,2.939,3.059
						C290.759,50.565,289.423,51.87,287.793,51.87z M264.798,51.417c-0.02,0-0.04,0-0.061,0l-4.999-0.099
						c-1.656-0.033-2.973-1.402-2.94-3.059s1.43-2.962,3.059-2.94l4.999,0.099c1.656,0.033,2.973,1.402,2.939,3.059
						C267.764,50.112,266.428,51.417,264.798,51.417z M241.802,50.963c-0.02,0-0.04,0-0.06,0l-4.999-0.099
						c-1.657-0.033-2.973-1.402-2.94-3.059s1.39-2.98,3.059-2.94l4.999,0.099c1.657,0.033,2.973,1.402,2.94,3.059
						C244.768,49.659,243.431,50.963,241.802,50.963z"/>
				</g>
			</g>
		</g>
	</g>
</g>
<g id="Layer_1">
</g>
</svg>
